<svg xmlns="http://www.w3.org/2000/svg" width="465" height="332" viewBox="0 0 465 332">
    <g fill="none" fill-rule="evenodd">
        <g fill-rule="nonzero">
            <g>
                <g>
                    <path fill="#2DFADD" d="M246 91.767l.56 11.228s13.538 8.798 22.44-4.566l-1.431-9.592s-5.16 14.523-21.569 2.93z" transform="translate(-728 -231) translate(728 230) translate(-72)"/>
                    <path fill="#CD568E" d="M294.012 107.705c1.997 4.221.31 9.655-2.958 12.807-.674-.364-1.294-.832-1.842-1.389-.304-.31-3.233.75-3.61.846-.377.096-3.358 1.173-3.602.934 1.476 1.593 3.604 2.264 5.644 1.779.17 0 .34-.056.525-.104 2.677-.63 5.688-.997 8.136-2.338 4.438-2.393 7.16-9.439 4.86-14.314-.237-.63-6.901 2.306-7.153 1.78z" transform="translate(-728 -231) translate(728 230) translate(-72)"/>
                    <path fill="#EC68A1" d="M291.575 120.81c-.33-.161-.648-.354-.95-.575-.586-.357-1.126-.807-1.606-1.338-.295-.33-3.146.796-3.513.897-.367.102-3.268 1.245-3.506.99 1.437 1.691 3.508 2.403 5.493 1.888.165 0 .331-.059.51-.11 1.613-.414 3.341-.736 4.997-1.244-.493-.092-.972-.263-1.425-.508z" transform="translate(-728 -231) translate(728 230) translate(-72)"/>
                    <path fill="#BE8102" d="M520.255 256.907c-4.326-1.912-8.622-3.12-13.448-.793-5.581 2.726-8.824 9.342-11.304 14.676-2.48 5.334-5.835 12.12-12.193 11.66-.172-.118-.329-.244-.47-.355-1.103-.957-2.144-1.98-3.116-3.067-1.576-1.69-5.23-1.482-6.724-3.134 4.259 4.549 9.63 7.505 15.54 9.505 7.964 2.689 11.954-7.668 14.501-13.039 2.84-6.038 6.986-12.653 13.942-14.305 1.478-.292 2.998-.307 4.482-.045.782.617 1.53 1.275 2.242 1.971 3.37 3.208 5.91 7.26 8.524 11.068 1.225 1.778 5.581 1.408 6.769 3.134-4.132-6.001-8.218-12.328-15.002-15.558l-1.113-.526-2.63-1.192z" transform="translate(-728 -231) translate(728 230) translate(-72)"/>
                    <path fill="#FFA73C" d="M519.548 256.907c-4.339-1.912-8.648-3.12-13.489-.793-5.598 2.726-8.85 9.342-11.338 14.676-2.488 5.334-5.845 12.112-12.222 11.66-.493.1-.997.133-1.499.097 2.167 1.127 4.423 2.08 6.744 2.852 7.989 2.689 11.99-7.668 14.546-13.039 2.847-6.038 7.006-12.653 13.983-14.305 1.483-.292 3.008-.307 4.496-.045l.105.09c.148 0 .294.023.435.066 1.614.54 3.182 1.203 4.691 1.985-.862-.578-1.767-1.093-2.705-1.54l-1.117-.527-2.63-1.177z" transform="translate(-728 -231) translate(728 230) translate(-72)"/>
                    <path fill="#4042EE" d="M231.848 90.837c-2.566 1.57-4.195 4.156-5.816 6.631-.043.358-.043.719 0 1.076v5.209c.038.36.038.724 0 1.084 1.621-2.476 3.25-5.062 5.816-6.632.32-.199.036-3.33.036-3.684 0-.354-.283-3.537-.036-3.684zM197 144.22c1.64 2.51 4.258 4.05 6.746 5.584.354.044.712.044 1.066 0l2.561-.095c.856 0 1.712-.066 2.56-.11.354-.052.71-.074 1.067-.065-2.495-1.533-5.078-3.066-6.746-5.578-.21-.314-3.279.088-3.627.103-.348.014-3.467.416-3.627.175v-.015z" transform="translate(-728 -231) translate(728 230) translate(-72)"/>
                    <path fill="#E7EE06" d="M118.783 163.837c.147-2.213-.474-4.413-1.783-6.32l11-.68v4.085l-9.217 2.915z" transform="translate(-728 -231) translate(728 230) translate(-72)"/>
                    <path fill="#EC68A1" d="M102 264.692l-4.677-.855S92.24 276.65 102 275.796c-1.774-3.487-1.774-7.618 0-11.104z" transform="translate(-728 -231) translate(728 230) translate(-72)"/>
                    <path fill="#E7EE06" d="M76.349 104.837l-9.288 5.083s-1.739 16.112 13.374 18.917l7.542-5.229c8.835-.685-14.288-.533-11.628-18.771zM112 285.336l6.202 8.5s15.449-.75 15.798-16.235l-6.07-6.764s3.27 14.348-15.93 14.499z" transform="translate(-728 -231) translate(728 230) translate(-72)"/>
                    <path fill="#2DFADD" d="M201.673 209.837l-11.055.742s-8.416 13.622 4.932 22.258l9.45-1.588s-14.437-4.882-3.327-21.412z" transform="translate(-728 -231) translate(728 230) translate(-72)"/>
                    <path fill="#CD568E" d="M79.033 79.837c.48-4.337 4.701-7.615 9.08-8.277.386.646.672 1.344.847 2.073.105.404 3.134 1.176 3.509 1.308.375.133 3.449.92 3.531 1.243-.434-2.031-1.892-3.706-3.869-4.447-.165-.074-.322-.147-.502-.214-2.602-.97-5.338-2.315-8.135-2.631-5.03-.573-10.924 3.389-11.494 8.402-.067.646 7.093 2.006 7.033 2.543z" transform="translate(-728 -231) translate(728 230) translate(-72)"/>
                    <path fill="#EC68A1" d="M87.954 72.095c.204.322.383.661.535 1.015.322.628.565 1.3.723 1.998.101.432 3.022 1.258 3.383 1.4.362.141 3.325.983 3.405 1.329-.419-2.173-1.824-3.966-3.73-4.759-.16-.078-.311-.157-.484-.228-1.547-.637-3.152-1.423-4.786-2.013.37.37.69.793.954 1.258z" transform="translate(-728 -231) translate(728 230) translate(-72)"/>
                    <path fill="#333CC1" d="M143 228.542c-.09-4.727-.812-9.134-4.998-12.487-4.892-3.913-12.355-4.025-18.315-3.98-5.96.044-13.625-.113-15.917-6.065.045-.209.082-.403.127-.575.415-1.406.917-2.786 1.503-4.13.88-2.158-.864-5.355 0-7.468-2.367 5.803-2.788 11.95-2.104 18.133.917 8.357 12.153 7.573 18.165 7.565 6.764 0 14.602.919 19.081 6.505.89 1.21 1.547 2.572 1.94 4.018-.236.969-.525 1.924-.865 2.86-1.503 4.422-4.148 8.455-6.53 12.45-1.113 1.868 1.082 5.646 0 7.469 3.757-6.304 7.838-12.696 7.913-20.24v-4.055z" transform="translate(-728 -231) translate(728 230) translate(-72)"/>
                    <path fill="#4042EE" d="M143 227.686c-.09-4.725-.811-9.13-4.995-12.48-4.89-3.912-12.347-4.024-18.303-3.98-5.956.045-13.61-.111-15.9-6.06-.315-.405-.568-.852-.752-1.33-.114 2.432-.034 4.868.24 7.286.917 8.353 12.146 7.57 18.154 7.562 6.76 0 14.594.918 19.07 6.501.889 1.21 1.546 2.57 1.938 4.016-.01.046-.022.09-.038.134.065.134.105.278.12.426.197 1.684.257 3.382.18 5.076.158-1.026.243-2.06.256-3.098v-1.232l.03-2.821z" transform="translate(-728 -231) translate(728 230) translate(-72)"/>
                    <path fill="#333CC1" d="M216.453 16.997c-4.302-1.963-8.59-3.223-13.407-.925-5.64 2.685-8.964 9.326-11.473 14.675-2.51 5.35-5.976 12.146-12.31 11.624-.164-.12-.321-.246-.456-.366-1.096-.967-2.127-2.006-3.085-3.11-1.568-1.724-5.228-1.538-6.722-3.231 4.213 4.625 9.553 7.654 15.447 9.699 7.917 2.812 12.07-7.58 14.61-12.967 2.89-6.051 7.11-12.684 14.072-14.265 1.482-.275 3-.275 4.482 0 .782.63 1.53 1.303 2.241 2.014 3.346 3.26 5.841 7.364 8.426 11.191 1.202 1.806 5.557 1.492 6.722 3.23-4.123-6.072-8.12-12.474-14.902-15.771L219 18.25l-2.547-1.253z" transform="translate(-728 -231) translate(728 230) translate(-72)"/>
                    <path fill="#4042EE" d="M215.655 16.996c-4.3-1.962-8.585-3.222-13.4-.925-5.637 2.684-8.959 9.321-11.467 14.668-2.508 5.347-5.972 12.133-12.295 11.618-.491.096-.994.124-1.493.082 2.14 1.154 4.369 2.134 6.666 2.93 7.913 2.79 12.064-7.598 14.602-12.982 2.89-6.048 7.107-12.677 14.065-14.258 1.48-.275 2.998-.275 4.479 0l.104.097c.148 0 .294.025.433.075 1.604.55 3.16 1.23 4.651 2.035-.862-.579-1.766-1.094-2.702-1.543l-1.098-.545-2.545-1.252z" transform="translate(-728 -231) translate(728 230) translate(-72)"/>
                    <path fill="#BE8102" d="M212.725 126.286c-.872.616-1.854 1.058-2.892 1.301l6.23-1.13-.869.149 1.076-.164c-2.419.226-4.853-.208-7.045-1.257-2.885-1.36-3.211-4.312-3.167-7.183.097-6 3.24-13.258-3.76-16.515-4.91-2.29-11.65-.55-16.893-.587-4.94 0-10.078-.625-14.35-3.287-10.3-6.424-1.676-19.333-6.148-28.077-2.966-5.785-11.813-5.205-17.19-5.711-7.49-.744-12.006-6.194-17.412-10.782-1.246-1.048-6.133 2.29-7.305 1.294 5.933 5.041 10.382 10.075 18.54 10.893 6.348.64 14.661.395 16.93 7.8 1.728 5.63-.741 11.898 0 17.705.816 5.949 5.814 9.265 11.19 10.596 5.555 1.376 11.473.855 17.117.543 3.433-.193 6.897 0 9.893 1.83 3.3 2.022 3.018 6.23 2.721 9.554-.296 3.324-1.112 6.693-.282 10.106.742 3.026 4.45 4.015 7.097 4.387 2.388.327 4.925-.357 7.253-.744 2.329-.387 4.613-.61 6.541-1.985-1.802 1.279-5.466 0-7.305 1.294l.03-.03z" transform="translate(-728 -231) translate(728 230) translate(-72)"/>
                    <path fill="#FFA73C" d="M141.518 65.286c6.4.65 14.782.4 17.07 7.918 1.742 5.714-.748 12.077 0 17.972.822 6.038 5.861 9.404 11.282 10.756 5.6 1.396 11.567.868 17.256.55 3.462-.196 6.954 0 9.975 1.857 3.327 2.053 3.043 6.326 2.744 9.7-.3 3.373-1.122 6.793-.285 10.257.748 3.072 4.486 4.076 7.156 4.453 2.407.333 4.964-.362 7.312-.754l.972-.166c-.569-.161-1.128-.355-1.675-.582l-.067.046c-1.22-.21-2.406-.59-3.522-1.133-2.908-1.38-3.237-4.377-3.192-7.29.097-6.092 3.267-13.459-3.791-16.765-4.95-2.325-11.746-.558-17.032-.596-4.98 0-10.161-.634-14.468-3.336-10.385-6.522-1.69-19.625-6.198-28.501-2.393-4.703-8.59-5.284-13.75-5.548-.934 0-1.884-.045-2.826-.098-5.588.693-11.259-.06-16.479-2.19 2.84 1.93 6.11 3.116 9.518 3.45z" transform="translate(-728 -231) translate(728 230) translate(-72)"/>
                    <path fill="#2DFADD" d="M274 57.028c-2.137-2.17-5.047-3.166-7.839-4.191-.36.032-.714.112-1.053.238l-2.535.609-2.527.632c-.338.13-.688.225-1.046.282 2.792 1.026 5.702 2.022 7.839 4.192.265.275 3.242-.743 3.588-.84.346-.097 3.367-1.13 3.573-.922z" transform="translate(-728 -231) translate(728 230) translate(-72)"/>
                    <path fill="#CD568E" d="M203.808 67.21c-4.118 1.072-8.5-1.69-10.553-5.51.467-.57 1.011-1.068 1.616-1.477.336-.229.036-3.302.036-3.693s-.3-3.501-.036-3.693c-1.712 1.106-2.758 3.04-2.774 5.126v.532c0 2.74-.35 5.746.28 8.435 1.136 4.838 6.698 8.923 11.438 7.682.608-.17-.522-7.268-.007-7.401z" transform="translate(-728 -231) translate(728 230) translate(-72)"/>
                    <path fill="#EC68A1" d="M192.719 61.495c.213-.303.45-.587.708-.85.413-.514.89-.97 1.415-1.356.333-.23.036-3.331.036-3.726s-.298-3.532-.036-3.726c-1.695 1.116-2.73 3.067-2.746 5.172v.536c0 1.707-.135 3.518-.085 5.292.178-.479.416-.93.708-1.342z" transform="translate(-728 -231) translate(728 230) translate(-72)"/>
                    <path fill="#00B092" d="M123.566 31.837c-1.437 4.453-6.34 6.937-10.824 6.645-.245-.766-.376-1.566-.387-2.374 0-.45-2.835-1.946-3.177-2.167-.342-.222-3.178-1.748-3.178-2.104-.025 2.23 1.048 4.32 2.843 5.537.152.11.289.23.449.332 2.363 1.583 4.78 3.647 7.471 4.62 4.842 1.733 11.569-1.091 13.233-6.233.183-.649-6.612-3.702-6.43-4.256z" transform="translate(-728 -231) translate(728 230) translate(-72)"/>
                    <path fill="#2DFADD" d="M112.31 38.547c-.13-.324-.233-.659-.307-1.001-.178-.618-.276-1.258-.294-1.903 0-.402-2.547-1.734-2.854-1.931-.307-.198-2.855-1.558-2.855-1.875-.022 1.987.941 3.848 2.554 4.934.137.098.26.204.403.296 1.311.888 2.643 1.91 4.043 2.77-.289-.394-.521-.828-.69-1.29zM159 118.831L156.292 113.837 153 115.382 155.694 120.837z" transform="translate(-728 -231) translate(728 230) translate(-72)"/>
                    <path fill="#4042EE" d="M100.963 162.156l-1.664-.32s.274.552-.69 2.14c-.966 1.588-2.072 3.193-1.406 4.581l2.97.28c-.515-.868-.576-1.916-.167-2.834.674-1.724 1.131-2.25.957-3.847z" transform="translate(-728 -231) translate(728 230) translate(-72)"/>
                    <path fill="#2DFADD" d="M135 193.387l-1.93-.55s.22.582-1.298 2.006c-1.517 1.424-3.185 2.848-2.68 4.298l3.565.696c-.443-.933-.298-1.968.396-2.81 1.155-1.608 1.812-2.045 1.947-3.64z" transform="translate(-728 -231) translate(728 230) translate(-72)"/>
                    <path fill="#EC68A1" d="M171.414 203.837L170 205.282s.766 0 1.82 1.798c1.056 1.8 2.07 3.692 3.952 3.757l2.228-2.781c-1.173.073-2.317-.407-3.117-1.308-1.42-1.524-1.662-2.254-3.47-2.911zM76.38 27.837L75 29.282s.76 0 1.822 1.791c1.063 1.792 2.071 3.699 3.955 3.764L83 32.056c-1.184.072-2.337-.416-3.14-1.33-1.423-1.51-1.671-2.232-3.48-2.89z" transform="translate(-728 -231) translate(728 230) translate(-72)"/>
                    <path fill="#2DFADD" d="M125.652 92.535l.234-.172c.696-.41 1.122-1.175 1.114-2 .006-.827-.42-1.594-1.114-2.009l-.234-.172c-.76-.46-1.702-.46-2.462 0-.738.452-1.19 1.27-1.19 2.155 0 .884.452 1.702 1.19 2.155.76.46 1.702.46 2.462 0v.043z" transform="translate(-728 -231) translate(728 230) translate(-72)"/>
                    <path fill="#FFF" d="M81.5 208.837c2 0 2-4 0-4s-2 4 0 4zM70.503 256.835c.333.016.665-.058.96-.214.309-.098.586-.277.803-.518.242-.216.421-.494.519-.803.155-.295.229-.627.213-.96l-.085-.668c-.118-.416-.34-.795-.647-1.101l-.505-.39c-.38-.226-.815-.343-1.258-.342-.335-.017-.669.057-.966.213-.61.229-1.09.711-1.315 1.322-.158.297-.235.63-.22.966l.092.661c.113.417.334.797.64 1.102l.504.39c.383.226.82.344 1.265.342zM87.503 91.837c4.659 0 4.667-7 0-7s-4.675 7 0 7z" transform="translate(-728 -231) translate(728 230) translate(-72)"/>
                    <path fill="#CD568E" d="M358.025 230.837c.473-4.351 4.698-7.633 9.08-8.305.393.646.682 1.348.856 2.08.097.406 3.13 1.18 3.504 1.313.376.133 3.452.922 3.535 1.246-.444-2.025-1.901-3.69-3.872-4.425-.165-.073-.323-.147-.496-.214-2.604-.973-5.35-2.323-8.142-2.64-5.028-.575-10.941 3.4-11.49 8.43-.09.612 7.085 2.013 7.025 2.515z" transform="translate(-728 -231) translate(728 230) translate(-72)"/>
                    <path fill="#EC68A1" d="M367.961 221.063c.205.322.384.664.535 1.02.319.633.562 1.308.723 2.01.094.434 3.015 1.265 3.376 1.407.362.142 3.325.989 3.405 1.337-.427-2.172-1.832-3.959-3.73-4.746-.16-.08-.311-.158-.477-.23-1.554-.64-3.16-1.431-4.793-2.024.374.355.697.768.961 1.226z" transform="translate(-728 -231) translate(728 230) translate(-72)"/>
                    <path fill="#00B092" d="M403.608 181.837c-1.437 4.453-6.34 6.937-10.826 6.644-.24-.767-.368-1.566-.38-2.373 0-.45-2.843-1.938-3.178-2.167-.335-.23-3.216-1.748-3.224-2.104-.026 2.23 1.047 4.32 2.844 5.537.144.11.289.23.448.332 2.357 1.582 4.775 3.647 7.466 4.62 4.843 1.732 11.579-1.084 13.236-6.234.228-.648-6.56-3.702-6.386-4.255z" transform="translate(-728 -231) translate(728 230) translate(-72)"/>
                    <path fill="#2DFADD" d="M392.35 188.547c-.126-.325-.23-.66-.307-1.001-.179-.618-.275-1.258-.287-1.903 0-.402-2.557-1.727-2.857-1.931-.301-.205-2.892-1.558-2.899-1.875-.024 1.987.941 3.85 2.557 4.934.13.098.26.204.403.296 1.306.888 2.646 1.91 4.04 2.77-.275-.396-.493-.83-.65-1.29zM314 181.831L311.292 176.837 308 178.382 310.701 183.837z" transform="translate(-728 -231) translate(728 230) translate(-72)"/>
                    <path fill="#4042EE" d="M256.963 226.156l-1.664-.32s.274.552-.69 2.14c-.966 1.588-2.072 3.193-1.406 4.59l2.97.27c-.515-.867-.576-1.915-.167-2.833.674-1.732 1.131-2.25.957-3.847z" transform="translate(-728 -231) translate(728 230) translate(-72)"/>
                    <path fill="#EC68A1" d="M356.38 177.837l-1.38 1.445s.766 0 1.82 1.791c1.056 1.792 2.07 3.699 3.952 3.764l2.228-2.781c-1.173.073-2.317-.407-3.117-1.308-1.449-1.531-1.69-2.254-3.504-2.911z" transform="translate(-728 -231) translate(728 230) translate(-72)"/>
                    <path fill="#FFF" d="M323.5 212.837c.828 0 1.5-.672 1.5-1.5 0-.829-.672-1.5-1.5-1.5s-1.5.671-1.5 1.5c0 .828.672 1.5 1.5 1.5z" transform="translate(-728 -231) translate(728 230) translate(-72)"/>
                    <path fill="#FFA73C" d="M79.5 158.837c.828 0 1.5-.672 1.5-1.5 0-.829-.672-1.5-1.5-1.5s-1.5.671-1.5 1.5c0 .828.672 1.5 1.5 1.5zM173 181.822c.401.014.8-.074 1.157-.258.73-.283 1.306-.86 1.583-1.59.184-.356.273-.752.258-1.152l-.106-.795c-.138-.494-.4-.944-.761-1.31l-.601-.47c-.461-.27-.987-.412-1.522-.409-.402-.015-.8.074-1.157.258-.737.284-1.316.869-1.59 1.605-.185.356-.274.752-.26 1.152l.107.795c.138.494.4.945.761 1.31l.601.47c.461.27.987.412 1.522.409l.008-.015zM157.5 164.837c2 0 2-3 0-3s-2 3 0 3z" transform="translate(-728 -231) translate(728 230) translate(-72)"/>
                    <path fill="#FFF" d="M178.001 153.837c2.661 0 2.67-4 0-4-2.668 0-2.668 4 0 4zM114 139.837c.552 0 1-.448 1-1 0-.553-.448-1-1-1s-1 .447-1 1c0 .552.448 1 1 1zM84 332.837c.552 0 1-.448 1-1 0-.553-.448-1-1-1s-1 .447-1 1c0 .552.448 1 1 1zM122.5 124.837c2 0 2-3 0-3s-2 3 0 3z" transform="translate(-728 -231) translate(728 230) translate(-72)"/>
                    <path fill="#E7EE06" d="M425.783 259.837c.147-2.226-.474-4.439-1.783-6.357l11-.643v4.105l-9.217 2.895z" transform="translate(-728 -231) translate(728 230) translate(-72)"/>
                    <path fill="#2DFADD" d="M465 212.833L462.292 207.837 459 209.387 461.701 214.837z" transform="translate(-728 -231) translate(728 230) translate(-72)"/>
                    <path fill="#FFA73C" d="M464.5 259.837c1.996 0 2.004-3 0-3s-1.996 3 0 3z" transform="translate(-728 -231) translate(728 230) translate(-72)"/>
                    <path fill="#FFF" d="M421 234.837c.552 0 1-.448 1-1 0-.553-.448-1-1-1s-1 .447-1 1c0 .552.448 1 1 1zM428.5 219.837c2 0 2-3 0-3s-2 3 0 3zM227.5 52.837c2 0 2-3 0-3s-2 3 0 3z" transform="translate(-728 -231) translate(728 230) translate(-72)"/>
                    <path fill="#FFA73C" d="M171.501 52.837c1.999 0 1.999-3 0-3-1.998 0-2.005 3 0 3z" transform="translate(-728 -231) translate(728 230) translate(-72)"/>
                    <path fill="#4042EE" d="M542 237.685c-1.57-2.565-4.156-4.193-6.632-5.813-.357-.047-.718-.047-1.075 0h-5.209c-.361.033-.724.033-1.084 0 2.476 1.62 5.062 3.248 6.632 5.813.199.32 3.33.036 3.684.036.353 0 3.537-.276 3.684-.036zM489.618 203.844c-2.512 1.64-4.052 4.25-5.585 6.746-.044.352-.044.708 0 1.06l.088 2.56c0 .856.073 1.712.116 2.568.053.35.075.705.066 1.059 1.533-2.496 3.066-5.078 5.577-6.746.314-.203-.087-3.28-.102-3.627-.014-.348-.416-3.468-.175-3.627l.015.007z" transform="translate(-728 -231) translate(728 230) translate(-72)"/>
                    <path fill="#EC68A1" d="M416.037 51.837c0 2.964 1.366 5.654 2.644 8.28.281.226.59.417.92.569l2.228 1.323c.743.44 1.485.878 2.228 1.303.331.145.647.32.943.525-1.277-2.619-2.651-5.31-2.644-8.274 0-.367-2.851-1.712-3.163-1.892-.312-.18-3.193-1.546-3.193-1.834h.037z" transform="translate(-728 -231) translate(728 230) translate(-72)"/>
                    <path fill="#4042EE" d="M495 39.694c-1.57-2.561-4.163-4.2-6.632-5.822-.36-.047-.723-.047-1.083 0h-5.21c-.357.033-.717.033-1.075 0 2.468 1.623 5.062 3.26 6.632 5.822.191.32 3.323 0 3.684 0 .36 0 3.53-.283 3.684 0z" transform="translate(-728 -231) translate(728 230) translate(-72)"/>
                    <path fill="#FFA73C" d="M307 51.685c-1.562-2.564-4.156-4.19-6.632-5.81-.356-.05-.719-.05-1.075 0h-5.21c-.36.033-.723.033-1.083 0 2.476 1.62 5.07 3.246 6.632 5.81.199.32 3.33.036 3.684.036.353 0 3.537-.283 3.684-.036z" transform="translate(-728 -231) translate(728 230) translate(-72)"/>
                    <path fill="#FF0" d="M469 124.62c2.223.146 4.434-.475 6.35-1.783l.65 11h-4.106L469 124.62z" transform="translate(-728 -231) translate(728 230) translate(-72)"/>
                    <path fill="#EC68A1" d="M369.145 106.837l.855-4.675s-12.814-5.088-11.96 4.675c3.487-1.776 7.619-1.776 11.105 0z" transform="translate(-728 -231) translate(728 230) translate(-72)"/>
                    <path fill="#2DFADD" d="M528 80.212l-5.084-9.314S506.805 69.154 504 84.31l5.228 7.526S508.093 77.29 528 80.212z" transform="translate(-728 -231) translate(728 230) translate(-72)"/>
                    <path fill="#FFA73C" d="M347.501 116.837l-8.501 6.2s.752 15.444 16.235 15.8L362 132.76s-14.349 3.27-14.499-15.924z" transform="translate(-728 -231) translate(728 230) translate(-72)"/>
                    <path fill="#00B092" d="M405.32 148.837c4.725-.083 9.128-.812 12.479-4.998 3.91-4.885 4.022-12.356 3.977-18.316-.045-5.96.112-13.618 6.06-15.918l.574.135c1.408.408 2.787.91 4.127 1.503 2.157.88 5.351-.864 7.463 0-5.799-2.367-11.94-2.795-18.12-2.111-8.35.909-7.604 12.145-7.604 18.157 0 6.764-.918 14.603-6.5 19.083-1.208.891-2.57 1.551-4.015 1.946-.967-.241-1.92-.532-2.858-.872-4.418-1.503-8.448-4.148-12.44-6.523-1.866-1.113-5.642 1.082-7.463 0 6.299 3.758 12.687 7.839 20.224 7.914h4.097z" transform="translate(-728 -231) translate(728 230) translate(-72)"/>
                    <path fill="#2DFADD" d="M405.185 148.837c4.719-.083 9.116-.811 12.463-4.994 3.906-4.882 4.018-12.346 3.973-18.302-.045-5.955.112-13.608 6.045-15.898.405-.316.855-.57 1.334-.751-2.427-.12-4.86-.043-7.275.233-8.34.946-7.595 12.173-7.595 18.181 0 6.759-.917 14.592-6.492 19.068-1.207.89-2.567 1.55-4.01 1.945l-.135-.038c-.136.057-.279.097-.424.12-1.683.19-3.378.248-5.069.173 1.024.156 2.058.244 3.093.263H405.185z" transform="translate(-728 -231) translate(728 230) translate(-72)"/>
                    <path fill="#BE8102" d="M367.283 43.201c1.025-4.593 1.366-9.023-1.862-13.244-3.77-4.935-10.908-6.786-16.637-8.139-5.729-1.352-13.038-3.292-13.84-9.587.09-.194.179-.372.26-.528.72-1.264 1.521-2.48 2.397-3.642 1.35-1.88.43-5.381 1.759-7.224-3.636 5.054-5.484 10.88-6.285 17.042-1.084 8.295 9.876 10.168 15.642 11.565 6.486 1.568 13.795 4.303 16.778 10.755.585 1.375.91 2.846.957 4.34-.448.88-.943 1.737-1.484 2.564-2.486 3.924-5.973 7.202-9.194 10.51-1.484 1.545-.29 5.715-1.758 7.224 5.083-5.203 10.507-10.406 12.355-17.719.096-.401.2-.795.304-1.19l.608-2.727z" transform="translate(-728 -231) translate(728 230) translate(-72)"/>
                    <path fill="#FFA73C" d="M367.283 42.869c1.025-4.676 1.366-9.185-1.862-13.482-3.77-5.024-10.908-6.908-16.637-8.285-5.729-1.377-13.03-3.351-13.84-9.752-.196-.484-.326-.993-.385-1.513-.689 2.363-1.185 4.78-1.484 7.225-1.084 8.474 9.876 10.38 15.642 11.803 6.486 1.596 13.795 4.38 16.778 10.947.585 1.4.91 2.898.957 4.419l-.066.128c.022.146.022.294 0 .439-.209 1.705-.551 3.39-1.024 5.039.395-.969.722-1.965.98-2.981.096-.409.2-.81.303-1.21l.638-2.777z" transform="translate(-728 -231) translate(728 230) translate(-72)"/>
                    <path fill="#333CC1" d="M506.55 218.57c-.616-.872-1.057-1.854-1.3-2.892.371 2.076.748 4.152 1.13 6.229-.052-.29-.097-.579-.149-.868.06.363.112.742.164 1.075-.228-2.423.206-4.862 1.256-7.06 1.361-2.884 4.313-3.21 7.183-3.165 6.001.096 13.258 3.24 16.515-3.76 2.29-4.909.55-11.642.588-16.892 0-4.939.624-10.078 3.286-14.349 6.425-10.3 19.334-1.676 28.078-6.147 5.785-2.966 5.205-11.813 5.71-17.182.744-7.496 6.195-12.012 10.783-17.418 1.048-1.238-2.29-6.125-1.294-7.304-5.042 5.932-10.076 10.381-10.894 18.538-.64 6.348-.394 14.66-7.8 16.937-5.629 1.72-11.897-.779-17.704 0-5.95.815-9.266 5.813-10.597 11.19-1.375 5.554-.855 11.471-.542 17.114.193 3.433 0 6.896-1.83 9.892-2.022 3.307-6.23 3.018-9.555 2.722-3.323-.297-6.692-1.113-10.105-.282-3.026.741-4.015 4.449-4.387 7.096-.327 2.388.357 4.924.744 7.252.386 2.329.61 4.613 1.985 6.54-1.279-1.801 0-5.464-1.294-7.303l.03.037z" transform="translate(-728 -231) translate(728 230) translate(-72)"/>
                    <path fill="#4042EE" d="M568.522 147.32c-.649 6.403-.4 14.788-7.914 17.084-5.712 1.735-12.072-.785-17.964 0-6.036.823-9.4 5.864-10.75 11.287-1.397 5.602-.869 11.57-.552 17.262.197 3.463 0 6.956-1.856 9.978-2.052 3.336-6.322 3.044-9.694 2.745-3.373-.3-6.79-1.122-10.253-.284-3.071.748-4.074 4.487-4.452 7.157-.332 2.409.362 4.967.755 7.315l.158.973c.166-.561.362-1.122.581-1.676.003-.022.003-.045 0-.067.209-1.221.59-2.407 1.132-3.523 1.38-2.91 4.376-3.238 7.288-3.194 6.088.098 13.452 3.269 16.756-3.792 2.324-4.951.559-11.742.596-17.038 0-4.981.634-10.165 3.335-14.473 6.519-10.389 19.616-1.69 28.488-6.2 4.7-2.394 5.244-8.594 5.546-13.755 0-.935.045-1.877.098-2.827-.691-5.58.06-11.242 2.18-16.455-1.934 2.827-3.13 6.086-3.478 9.484z" transform="translate(-728 -231) translate(728 230) translate(-72)"/>
                    <path fill="#FFA73C" d="M394.248 36.837L387 41.606 390.006 44.837 398 38.558z" transform="translate(-728 -231) translate(728 230) translate(-72)"/>
                    <path fill="#2DFADD" d="M515.005 163.837L520 161.136 518.454 157.837 513 160.538z" transform="translate(-728 -231) translate(728 230) translate(-72)"/>
                    <path fill="#4042EE" d="M471.68 105.8l.32-1.664s-.55.274-2.14-.69c-1.587-.966-3.192-2.072-4.58-1.407l-.28 2.97c.868-.514 1.916-.575 2.834-.166 1.74.674 2.25 1.131 3.847.956z" transform="translate(-728 -231) translate(728 230) translate(-72)"/>
                    <path fill="#2DFADD" d="M440.443 139.837l.557-1.938s-.582.22-2.006-1.289c-1.424-1.508-2.848-3.193-4.298-2.679l-.696 3.555c.931-.443 1.963-.297 2.804.396 1.614 1.154 2.05 1.828 3.639 1.955z" transform="translate(-728 -231) translate(728 230) translate(-72)"/>
                    <path fill="#EC68A1" d="M429 176.25l-1.445-1.413s0 .765-1.799 1.827c-1.798 1.062-3.691 2.07-3.756 3.945l2.781 2.228c-.073-1.174.406-2.317 1.308-3.117 1.466-1.421 2.225-1.663 2.911-3.47zM539 55.25l-1.445-1.413s0 .765-1.791 1.827c-1.792 1.062-3.699 2.07-3.764 3.952l2.781 2.22c-.068-1.172.41-2.313 1.308-3.116 1.531-1.421 2.254-1.663 2.911-3.47z" transform="translate(-728 -231) translate(728 230) translate(-72)"/>
                    <path fill="#2DFADD" d="M454.501 74.837c4.662 0 4.669-7 0-7-4.668 0-4.668 7 0 7zM426.501 40.837c1.999 0 1.999-3 0-3-1.998 0-2.005 3 0 3zM279.25 191.463l.172.233c.206.347.504.634.862.833.721.41 1.616.41 2.337 0 .357-.2.654-.488.862-.833l.172-.233c.46-.76.46-1.7 0-2.458-.459-.726-1.275-1.168-2.155-1.168-.88 0-1.696.442-2.155 1.168-.46.759-.46 1.699 0 2.458h-.095z" transform="translate(-728 -231) translate(728 230) translate(-72)"/>
                    <path fill="#FFF" d="M426.5 88.837c2 0 2-4 0-4s-2 4 0 4zM333.5 92.837c2 0 2-4 0-4s-2 4 0 4zM320.5 62.837c2 0 2-4 0-4s-2 4 0 4zM380.49 79.834c.335.017.669-.056.966-.212.62-.227 1.107-.717 1.329-1.338.155-.293.229-.623.213-.955l-.093-.665c-.111-.416-.332-.795-.64-1.097l-.504-.39c-.386-.218-.82-.335-1.265-.34-.333-.01-.663.066-.959.22-.308.097-.584.273-.803.51-.238.218-.417.493-.519.8-.155.296-.229.628-.213.962l.085.658c.116.418.339.799.647 1.104l.505.382c.38.224.815.342 1.257.34l-.007.021z" transform="translate(-728 -231) translate(728 230) translate(-72)"/>
                    <path fill="#4042EE" d="M532.68 289.797l.32-1.664s-.55.274-2.14-.69c-1.587-.966-3.192-2.064-4.589-1.407l-.271 2.97c.868-.514 1.916-.575 2.834-.166 1.74.674 2.25 1.14 3.847.957z" transform="translate(-728 -231) translate(728 230) translate(-72)"/>
                    <path fill="#2DFADD" d="M501.443 323.837l.557-1.938s-.582.22-2.006-1.289c-1.424-1.508-2.848-3.193-4.298-2.679l-.696 3.555c.931-.443 1.963-.297 2.804.396 1.614 1.154 2.05 1.828 3.639 1.955z" transform="translate(-728 -231) translate(728 230) translate(-72)"/>
                    <path fill="#FFA73C" d="M444 15.965c5.16 2.276 7.623 5.853 6.06 11.314-1.563 5.461-5.55 10.124 1.182 13.812 5.252 2.882 11.54 3.097 16.007 7.316 3.37 3.156 4.398 9.667 0 12.268.915-.54 2.866.554 3.812 0 4.703-2.756 3.049-8.868 0-12.268-3.919-4.397-11-4.714-16.008-7.316-6.617-3.407-2.973-8.632-1.182-13.805 1.868-5.365-1.135-9.141-6.06-11.314-1.067-.466-2.767.458-3.811 0v-.007zM476.5 85.837c.828 0 1.5-.672 1.5-1.5 0-.829-.672-1.5-1.5-1.5s-1.5.671-1.5 1.5c0 .828.672 1.5 1.5 1.5z" transform="translate(-728 -231) translate(728 230) translate(-72)"/>
                    <path fill="#4042EE" d="M317.68 156.8l.32-1.664s-.55.266-2.14-.698c-1.587-.965-3.192-2.063-4.58-1.398l-.28 2.97c.868-.514 1.916-.576 2.834-.167 1.74.666 2.25 1.132 3.847.957z" transform="translate(-728 -231) translate(728 230) translate(-72)"/>
                    <path fill="#FFA73C" d="M323.5 137.837c2 0 2-3 0-3s-2 3 0 3zM453.996 181.836c1.21.017 2.302-.717 2.743-1.842.185-.356.274-.755.26-1.157l-.107-.799c-.139-.496-.4-.95-.762-1.317l-.602-.472c-.464-.265-.99-.406-1.524-.41-.402-.016-.8.074-1.158.258-.37.119-.702.334-.96.624-.289.26-.504.59-.625.96-.187.356-.276.755-.259 1.156l.107.762c.139.498.4.953.762 1.324l.602.464c.461.272.988.415 1.523.411v.038zM291.997 210.834c.402.02.802-.07 1.157-.26.736-.27 1.316-.854 1.585-1.593.187-.359.276-.76.259-1.165l-.107-.766c-.134-.503-.397-.962-.761-1.332l-.61-.475c-.463-.27-.989-.41-1.523-.406-.789.027-1.541.34-2.118.88-.285.267-.497.602-.617.973-.19.355-.28.755-.26 1.157l.107.766c.132.504.395.964.762 1.333l.61.467c.46.276.987.419 1.523.413l-.007.008zM470.5 164.837c2 0 2-3 0-3s-2 3 0 3z" transform="translate(-728 -231) translate(728 230) translate(-72)"/>
                    <path fill="#FFF" d="M482.001 185.837c2.661 0 2.67-4 0-4-2.668 0-2.668 4 0 4zM494 120.837c.552 0 1-.448 1-1 0-.553-.448-1-1-1s-1 .447-1 1c0 .552.448 1 1 1zM301 90.837c.552 0 1-.448 1-1 0-.553-.448-1-1-1s-1 .447-1 1c0 .552.448 1 1 1zM510.5 128.837c2 0 2-3 0-3s-2 3 0 3zM512.503 53.837c1.992 0 2-3 0-3s-2.008 3 0 3z" transform="translate(-728 -231) translate(728 230) translate(-72)"/>
                    <path fill="#FF0" d="M234.98 193.837c-1.573-1.913-3.655-3.29-5.98-3.956l6.928-8.044 3.072 3.32-4.02 8.68z" transform="translate(-728 -231) translate(728 230) translate(-72)"/>
                    <path fill="#2DFADD" d="M274.005 162.837L279 160.129 277.454 156.837 272 159.531z" transform="translate(-728 -231) translate(728 230) translate(-72)"/>
                    <path fill="#FFA73C" d="M229.501 162.837c1.999 0 1.999-3 0-3-1.998 0-2.005 3 0 3z" transform="translate(-728 -231) translate(728 230) translate(-72)"/>
                    <path fill="#FFF" d="M253 118.837c.567-.048 1-.482 1-1 0-.519-.433-.952-1-1-.567.048-1 .481-1 1 0 .518.433.952 1 1zM268.501 128.837c1.999 0 1.999-3 0-3-1.998 0-2.005 3 0 3zM259.497 41.836c.334.011.666-.065.963-.221.612-.224 1.094-.707 1.318-1.32.157-.295.233-.628.22-.963l-.094-.663c-.115-.415-.335-.793-.64-1.098l-.505-.395c-.382-.225-.818-.343-1.262-.34-.657.023-1.283.284-1.76.735-.24.214-.42.486-.521.79-.157.296-.23.629-.214.963l.087.664c.113.42.336.802.647 1.105l.506.395c.38.222.814.34 1.255.34v.008z" transform="translate(-728 -231) translate(728 230) translate(-72)"/>
                </g>
            </g>
        </g>
    </g>
</svg>
