<svg xmlns="http://www.w3.org/2000/svg" xmlns:xlink="http://www.w3.org/1999/xlink" width="483" height="90" viewBox="0 0 483 90">
    <defs>
        <linearGradient id="vb64lt29mc" x1="50%" x2="50%" y1="18.958%" y2="100%">
            <stop offset="0%" stop-color="#FFF"/>
            <stop offset="100%" stop-color="#CDD1F4"/>
        </linearGradient>
        <linearGradient id="7ap2embm7f" x1="50%" x2="50%" y1="18.958%" y2="100%">
            <stop offset="0%" stop-color="#FFF"/>
            <stop offset="100%" stop-color="#CDD1F4"/>
        </linearGradient>
        <filter id="3j0y7ogopa" width="101%" height="114.6%" x="-.6%" y="-3.7%" filterUnits="objectBoundingBox">
            <feOffset dx="-1" dy="2" in="SourceAlpha" result="shadowOffsetOuter1"/>
            <feColorMatrix in="shadowOffsetOuter1" values="0 0 0 0 0.164705882 0 0 0 0 0.164705882 0 0 0 0 0.254901961 0 0 0 0.146989729 0"/>
        </filter>
        <filter id="axganej7hd" width="100.6%" height="114.6%" x="-.4%" y="-3.7%" filterUnits="objectBoundingBox">
            <feOffset dx="-1" dy="2" in="SourceAlpha" result="shadowOffsetOuter1"/>
            <feColorMatrix in="shadowOffsetOuter1" values="0 0 0 0 0.164705882 0 0 0 0 0.164705882 0 0 0 0 0.254901961 0 0 0 0.146989729 0"/>
        </filter>
        <path id="7mtn6e4tlb" d="M96.994 26.98c3.141 0 5.554-.71 7.24-2.128 1.684-1.419 2.526-3.407 2.526-5.966 0-1.317-.355-2.502-1.064-3.553-.71-1.051-1.583-1.805-2.622-2.261.785-.405 1.501-1.051 2.147-1.938.646-.887.97-1.938.97-3.154 0-2.432-.786-4.307-2.357-5.624C102.264 1.039 99.87.38 96.652.38H84.91c-.279 0-.507.095-.684.285-.177.19-.266.424-.266.703V26.03c0 .253.095.475.285.665.19.19.412.285.665.285h12.084zm-1.14-16.074h-4.75V5.51h4.75c.963 0 1.691.247 2.185.741s.741 1.134.741 1.919c0 .81-.253 1.47-.76 1.976-.507.507-1.229.76-2.166.76zm.342 10.944h-5.092v-5.966h5.092c.963 0 1.723.285 2.28.855.557.57.836 1.286.836 2.147 0 .836-.272 1.539-.817 2.109-.545.57-1.31.855-2.299.855zm20.786 5.13c.279 0 .513-.089.703-.266.19-.177.285-.405.285-.684v-8.322h3.648l4.18 8.246c.304.684.823 1.026 1.558 1.026h5.358c.228 0 .418-.082.57-.247.152-.165.228-.348.228-.551 0-.127-.038-.266-.114-.418l-5.13-9.272c1.444-.684 2.578-1.647 3.401-2.888.823-1.241 1.235-2.749 1.235-4.522 0-2.761-.944-4.902-2.83-6.422-1.888-1.52-4.504-2.28-7.848-2.28h-10.45c-.279 0-.507.095-.684.285-.177.19-.266.424-.266.703V26.03c0 .253.095.475.285.665.19.19.412.285.665.285h5.206zm5.206-14.858h-4.218v-6.27h4.218c1.09 0 1.92.291 2.49.874.57.583.854 1.355.854 2.318 0 .963-.285 1.716-.855 2.261-.57.545-1.4.817-2.489.817zM143.62 26.98c.279 0 .507-.095.684-.285.177-.19.266-.412.266-.665V1.33c0-.279-.089-.507-.266-.684-.177-.177-.405-.266-.684-.266h-5.434c-.253 0-.475.089-.665.266-.19.177-.285.405-.285.684v24.7c0 .253.095.475.285.665.19.19.412.285.665.285h5.434zm19.152 0c3.141 0 5.554-.71 7.24-2.128 1.684-1.419 2.526-3.407 2.526-5.966 0-1.317-.355-2.502-1.064-3.553-.71-1.051-1.583-1.805-2.622-2.261.785-.405 1.501-1.051 2.147-1.938.646-.887.97-1.938.97-3.154 0-2.432-.786-4.307-2.357-5.624-1.57-1.317-3.965-1.976-7.182-1.976h-11.742c-.279 0-.507.095-.684.285-.177.19-.266.424-.266.703V26.03c0 .253.095.475.285.665.19.19.412.285.665.285h12.084zm-1.14-16.074h-4.75V5.51h4.75c.963 0 1.691.247 2.185.741s.741 1.134.741 1.919c0 .81-.253 1.47-.76 1.976-.507.507-1.229.76-2.166.76zm.342 10.944h-5.092v-5.966h5.092c.963 0 1.723.285 2.28.855.557.57.836 1.286.836 2.147 0 .836-.272 1.539-.817 2.109-.545.57-1.31.855-2.299.855zm33.82 5.13c.279 0 .513-.089.703-.266.19-.177.285-.405.285-.684v-3.762c0-.279-.095-.513-.285-.703-.19-.19-.424-.285-.703-.285h-12.312v-4.94h11.172c.279 0 .513-.095.703-.285.19-.19.285-.424.285-.703v-3.458c0-.279-.095-.513-.285-.703-.19-.19-.424-.285-.703-.285h-11.172V6.08h12.008c.279 0 .513-.089.703-.266.19-.177.285-.405.285-.684V1.368c0-.279-.095-.513-.285-.703-.19-.19-.424-.285-.703-.285h-17.936c-.279 0-.507.095-.684.285-.177.19-.266.424-.266.703V26.03c0 .253.095.475.285.665.19.19.412.285.665.285h18.24zm25.118 0c.279 0 .513-.089.703-.266.19-.177.285-.405.285-.684v-8.094l8.778-16.34c.076-.127.114-.266.114-.418 0-.203-.082-.386-.247-.551-.165-.165-.348-.247-.55-.247h-5.017c-.355 0-.646.089-.874.266-.228.177-.393.367-.494.57l-5.282 9.538-5.282-9.538c-.101-.203-.266-.393-.494-.57-.228-.177-.52-.266-.874-.266h-5.016c-.203 0-.386.082-.55.247-.166.165-.248.348-.248.551 0 .152.038.291.114.418l8.778 16.34v8.094c0 .253.095.475.285.665.19.19.412.285.665.285h5.206zm22.8.38c3.597 0 6.428-.874 8.493-2.622 2.065-1.748 3.16-4.32 3.287-7.714.05-1.419.076-2.508.076-3.268 0-.735-.025-1.837-.076-3.306-.101-3.344-1.21-5.922-3.325-7.733S247.233 0 243.712 0c-3.547 0-6.378.906-8.493 2.717s-3.224 4.389-3.325 7.733c-.025.735-.038 1.837-.038 3.306l.001.651c.003 1.145.016 2.017.037 2.617.127 3.395 1.229 5.966 3.306 7.714 2.077 1.748 4.915 2.622 8.512 2.622zm0-5.7c-1.343 0-2.407-.399-3.192-1.197-.785-.798-1.203-2.02-1.254-3.667-.025-.735-.038-1.786-.038-3.154v-.358c.003-1.169.015-2.075.038-2.72.05-1.647.469-2.869 1.254-3.667.785-.798 1.85-1.197 3.192-1.197 1.317 0 2.369.399 3.154 1.197.785.798 1.203 2.02 1.254 3.667.05 1.419.076 2.445.076 3.078s-.025 1.685-.076 3.154c-.05 1.647-.469 2.869-1.254 3.667-.785.798-1.837 1.197-3.154 1.197zm27.436 5.7c3.572 0 6.371-.874 8.398-2.622 2.027-1.748 3.04-4.37 3.04-7.866V1.368c0-.279-.095-.513-.285-.703-.19-.19-.424-.285-.703-.285h-5.168c-.279 0-.513.095-.703.285-.19.19-.285.424-.285.703v15.428c0 1.545-.374 2.717-1.12 3.515-.748.798-1.819 1.197-3.212 1.197-1.393 0-2.464-.393-3.21-1.178-.748-.785-1.122-1.963-1.122-3.534V1.368c0-.279-.095-.513-.285-.703-.19-.19-.424-.285-.703-.285h-5.206c-.279 0-.507.095-.684.285-.177.19-.266.424-.266.703v15.504c0 3.496 1.02 6.118 3.06 7.866 2.038 1.748 4.857 2.622 8.454 2.622zm22.534-.38c.279 0 .513-.089.703-.266.19-.177.285-.405.285-.684v-8.322h3.648l4.18 8.246c.304.684.823 1.026 1.558 1.026h5.358c.228 0 .418-.082.57-.247.152-.165.228-.348.228-.551 0-.127-.038-.266-.114-.418l-5.13-9.272c1.444-.684 2.578-1.647 3.401-2.888.823-1.241 1.235-2.749 1.235-4.522 0-2.761-.944-4.902-2.83-6.422-1.888-1.52-4.504-2.28-7.848-2.28h-10.45c-.279 0-.507.095-.684.285-.177.19-.266.424-.266.703V26.03c0 .253.095.475.285.665.19.19.412.285.665.285h5.206zm5.206-14.858h-4.218v-6.27h4.218c1.09 0 1.92.291 2.49.874.57.583.854 1.355.854 2.318 0 .963-.285 1.716-.855 2.261-.57.545-1.4.817-2.489.817zm30.818 14.858c.405 0 .722-.101.95-.304.228-.203.393-.43.494-.684l3.762-10.526 3.762 10.526c.076.253.228.481.456.684.228.203.545.304.95.304h3.838c.405 0 .747-.12 1.026-.361.279-.24.443-.538.494-.893l4.066-24.32v-.228c0-.203-.076-.386-.228-.551-.152-.165-.342-.247-.57-.247h-4.978c-.38 0-.659.07-.836.209-.177.14-.291.361-.342.665l-2.356 14.326-2.622-8.284c-.203-.684-.62-1.026-1.254-1.026h-2.85c-.633 0-1.051.342-1.254 1.026l-2.622 8.322-2.318-14.364c-.076-.583-.481-.874-1.216-.874h-4.978c-.203 0-.386.082-.55.247-.166.165-.248.348-.248.551 0 .101.013.177.038.228l4.066 24.32c.05.355.21.652.475.893.266.24.614.361 1.045.361h3.8zm25.954 0c.608 0 1.039-.279 1.292-.836l1.368-3.686h9.956l1.368 3.686c.253.557.684.836 1.292.836h4.94c.203 0 .386-.082.551-.247.165-.165.247-.348.247-.551 0-.152-.013-.266-.038-.342l-8.854-24.358c-.253-.735-.76-1.102-1.52-1.102h-5.928c-.76 0-1.267.367-1.52 1.102L349.96 25.84c-.025.076-.038.19-.038.342 0 .203.082.386.247.551.165.165.348.247.551.247h4.94zm11.02-10.222h-6.764l3.382-9.69 3.382 9.69zm22.8 10.222c.279 0 .513-.089.703-.266.19-.177.285-.405.285-.684v-8.094l8.778-16.34c.076-.127.114-.266.114-.418 0-.203-.082-.386-.247-.551-.165-.165-.348-.247-.55-.247h-5.017c-.355 0-.646.089-.874.266-.228.177-.393.367-.494.57l-5.282 9.538-5.282-9.538c-.101-.203-.266-.393-.494-.57-.228-.177-.52-.266-.874-.266h-5.016c-.203 0-.386.082-.55.247-.166.165-.248.348-.248.551 0 .152.038.291.114.418l8.778 16.34v8.094c0 .253.095.475.285.665.19.19.412.285.665.285h5.206z"/>
        <path id="feoslpop6e" d="M11.855 60c3.521 0 6.34.906 8.455 2.717s3.224 4.389 3.325 7.733c.047 1.347.072 2.385.076 3.115v.191c0 .76-.025 1.85-.076 3.268-.127 3.395-1.222 5.966-3.287 7.714-2.065 1.748-4.896 2.622-8.493 2.622-3.597 0-6.435-.874-8.512-2.622-2.077-1.748-3.18-4.32-3.306-7.714-.021-.6-.034-1.472-.037-2.617v-1.355c.004-1.122.016-1.99.037-2.602.101-3.344 1.21-5.922 3.325-7.733S8.308 60 11.855 60zm78.318 0c3.521 0 6.34.906 8.455 2.717s3.224 4.389 3.325 7.733c.047 1.347.072 2.385.076 3.115v.191c0 .76-.025 1.85-.076 3.268-.127 3.395-1.222 5.966-3.287 7.714-2.065 1.748-4.896 2.622-8.493 2.622-3.597 0-6.435-.874-8.512-2.622-2.077-1.748-3.18-4.32-3.306-7.714-.021-.6-.034-1.472-.037-2.617v-1.01c.001-1.291.014-2.274.037-2.947.101-3.344 1.21-5.922 3.325-7.733S86.626 60 90.173 60zm298.756 0c3.521 0 6.34.906 8.455 2.717s3.224 4.389 3.325 7.733c.05 1.47.076 2.571.076 3.306 0 .76-.025 1.85-.076 3.268-.127 3.395-1.222 5.966-3.287 7.714-2.065 1.748-4.896 2.622-8.493 2.622-3.597 0-6.435-.874-8.512-2.622-2.077-1.748-3.18-4.32-3.306-7.714-.021-.6-.034-1.472-.037-2.617v-1.01c.001-1.291.014-2.274.037-2.947.101-3.344 1.21-5.922 3.325-7.733S385.382 60 388.93 60zm-129.314.38l.16.006c.671.048 1.125.414 1.36 1.096l8.854 24.358.017.064c.014.071.021.164.021.278 0 .203-.082.386-.247.551-.165.165-.348.247-.55.247h-4.94l-.15-.006c-.53-.042-.91-.32-1.143-.83l-1.368-3.686h-9.956l-1.368 3.686-.067.134c-.26.468-.668.702-1.225.702h-4.94l-.12-.01c-.155-.026-.3-.105-.43-.237-.166-.165-.248-.348-.248-.551 0-.152.013-.266.038-.342l8.854-24.358.058-.152c.27-.633.756-.95 1.462-.95h5.928zm-226.366 0l.17.007c.497.044.871.282 1.122.715l8.968 14.174V61.368l.007-.136c.025-.22.111-.409.26-.567.176-.19.404-.285.683-.285h4.826l.135.008c.218.026.401.119.55.277.176.19.265.424.265.703v24.624l-.007.136c-.025.22-.111.409-.259.567-.177.19-.405.285-.684.285h-4.294l-.17-.007c-.497-.044-.871-.282-1.122-.715l-8.93-13.604V86.03l-.008.135c-.026.218-.119.401-.277.549-.19.177-.424.266-.703.266h-4.826l-.124-.008c-.202-.026-.383-.119-.54-.277-.19-.19-.286-.412-.286-.665V61.368l.007-.136c.025-.22.111-.409.26-.567.176-.19.404-.285.683-.285h4.294zm41.952 0l.136.008c.22.026.409.119.567.277.19.19.285.424.285.703v4.256l-.008.135c-.026.218-.119.401-.277.549-.19.177-.424.266-.703.266h-6.688V86.03l-.008.135c-.026.218-.119.401-.277.549-.19.177-.424.266-.703.266h-5.282l-.136-.007c-.22-.025-.409-.111-.567-.259-.19-.177-.285-.405-.285-.684V66.574h-6.688l-.136-.007c-.22-.025-.409-.111-.567-.259-.19-.177-.285-.405-.285-.684v-4.256l.008-.136c.026-.22.119-.409.277-.567.19-.19.424-.285.703-.285h20.634zm58.026 0l.136.008c.22.026.409.119.567.277.19.19.285.424.285.703v4.256l-.008.135c-.026.218-.119.401-.277.549-.19.177-.424.266-.703.266h-6.688V86.03l-.008.135c-.026.218-.119.401-.277.549-.19.177-.424.266-.703.266h-5.282l-.136-.007c-.22-.025-.409-.111-.567-.259-.19-.177-.285-.405-.285-.684V66.574h-6.688l-.136-.007c-.22-.025-.409-.111-.567-.259-.19-.177-.285-.405-.285-.684v-4.256l.008-.136c.026-.22.119-.409.277-.567.19-.19.424-.285.703-.285h20.634zm10.488 0l.136.008c.22.026.409.119.567.277.19.19.285.424.285.703v9.006h8.968v-9.006l.008-.136c.026-.22.119-.409.277-.567.19-.19.424-.285.703-.285h5.168l.136.008c.22.026.409.119.567.277.19.19.285.424.285.703V86.03l-.008.135c-.026.218-.119.401-.277.549-.19.177-.424.266-.703.266h-5.168l-.136-.007c-.22-.025-.409-.111-.567-.259-.19-.177-.285-.405-.285-.684v-9.31h-8.968v9.31l-.008.135c-.026.218-.119.401-.277.549-.19.177-.424.266-.703.266h-5.206l-.135-.007c-.218-.025-.401-.111-.549-.259-.177-.177-.266-.405-.266-.684V61.368l.007-.136c.025-.22.111-.409.26-.567.176-.19.404-.285.683-.285h5.206zm41.154 0l.136.008c.22.026.409.119.567.277.19.19.285.424.285.703v3.762l-.008.135c-.026.218-.119.401-.277.549-.19.177-.424.266-.703.266h-12.008v4.826h11.172l.136.008c.22.026.409.119.567.277.19.19.285.424.285.703v3.458l-.008.136c-.026.22-.119.409-.277.567-.19.19-.424.285-.703.285h-11.172v4.94h12.312l.136.008c.22.026.409.119.567.277.19.19.285.424.285.703v3.762l-.008.135c-.026.218-.119.401-.277.549-.19.177-.424.266-.703.266h-18.24l-.124-.008c-.202-.026-.383-.119-.54-.277-.19-.19-.286-.412-.286-.665V61.368l.007-.136c.025-.22.111-.409.26-.567.176-.19.404-.285.683-.285h17.936zm19.76 0l.135.007c.218.025.401.111.55.259.176.177.265.405.265.684v19.684h11.4l.136.008c.22.026.409.119.567.277.19.19.285.424.285.703v4.028l-.008.135c-.026.218-.119.401-.277.549-.19.177-.424.266-.703.266h-17.67l-.124-.008c-.202-.026-.383-.119-.54-.277-.19-.19-.286-.412-.286-.665v-24.7l.008-.135c.026-.218.119-.401.277-.549.19-.177.412-.266.665-.266h5.32zm35.416 0l.136.008c.22.026.409.119.567.277.19.19.285.424.285.703v3.762l-.008.135c-.026.218-.119.401-.277.549-.19.177-.424.266-.703.266h-12.008v4.826h11.172l.136.008c.22.026.409.119.567.277.19.19.285.424.285.703v3.458l-.008.136c-.026.22-.119.409-.277.567-.19.19-.424.285-.703.285h-11.172v4.94h12.312l.136.008c.22.026.409.119.567.277.19.19.285.424.285.703v3.762l-.008.135c-.026.218-.119.401-.277.549-.19.177-.424.266-.703.266h-18.24l-.124-.008c-.202-.026-.383-.119-.54-.277-.19-.19-.286-.412-.286-.665V61.368l.007-.136c.025-.22.111-.409.26-.567.176-.19.404-.285.683-.285h17.936zm123.69 0l.415.004c3.01.055 5.265.712 6.767 1.972 1.57 1.317 2.356 3.192 2.356 5.624 0 1.216-.323 2.267-.969 3.154-.646.887-1.362 1.533-2.147 1.938 1.039.456 1.913 1.21 2.622 2.261.71 1.051 1.064 2.236 1.064 3.553 0 2.559-.842 4.547-2.527 5.966-1.685 1.419-4.098 2.128-7.239 2.128h-12.084l-.124-.008c-.202-.026-.383-.119-.54-.277-.19-.19-.286-.412-.286-.665V61.368l.007-.136c.025-.22.111-.409.26-.567.176-.19.404-.285.683-.285h11.742zm-27.702 0l.432.004c3.138.064 5.61.822 7.415 2.276 1.887 1.52 2.831 3.66 2.831 6.422 0 1.773-.412 3.28-1.235 4.522-.823 1.241-1.957 2.204-3.4 2.888l5.13 9.272.049.112c.043.109.064.211.064.306 0 .203-.076.386-.228.551-.152.165-.342.247-.57.247h-5.358l-.166-.006c-.647-.049-1.111-.389-1.392-1.02l-4.18-8.246h-3.648v8.322l-.008.135c-.026.218-.119.401-.277.549-.19.177-.424.266-.703.266h-5.206l-.124-.008c-.202-.026-.383-.119-.54-.277-.19-.19-.286-.412-.286-.665V61.368l.007-.136c.025-.22.111-.409.26-.567.176-.19.404-.285.683-.285h10.45zm82.536 0l.16.006c.671.048 1.125.414 1.36 1.096l8.854 24.358.017.064c.014.071.021.164.021.278 0 .203-.082.386-.247.551-.165.165-.348.247-.55.247h-4.94l-.15-.006c-.53-.042-.91-.32-1.143-.83l-1.368-3.686h-9.956l-1.368 3.686-.067.134c-.26.468-.668.702-1.225.702h-4.94l-.12-.01c-.155-.026-.3-.105-.43-.237-.166-.165-.248-.348-.248-.551 0-.152.013-.266.038-.342l8.854-24.358.058-.152c.27-.633.756-.95 1.462-.95h5.928zm50.654 0l.429.004c3.543.066 6.314.958 8.311 2.675 2.077 1.786 3.167 4.351 3.268 7.695.025.735.038 1.71.038 2.926 0 1.216-.013 2.179-.038 2.888-.253 6.941-4.193 10.412-11.818 10.412H459.23l-.124-.008c-.202-.026-.383-.119-.54-.277-.19-.19-.286-.412-.286-.665V61.368l.007-.136c.025-.22.111-.409.26-.567.176-.19.404-.285.683-.285h9.994zm-25.954 0l.432.004c3.138.064 5.61.822 7.415 2.276 1.887 1.52 2.831 3.66 2.831 6.422 0 1.773-.412 3.28-1.235 4.522-.823 1.241-1.957 2.204-3.4 2.888l5.13 9.272.049.112c.043.109.064.211.064.306 0 .203-.076.386-.228.551-.152.165-.342.247-.57.247H448.4l-.166-.006c-.647-.049-1.111-.389-1.392-1.02l-4.18-8.246h-3.648v8.322l-.008.135c-.026.218-.119.401-.277.549-.19.177-.424.266-.703.266h-5.206l-.124-.008c-.202-.026-.383-.119-.54-.277-.19-.19-.286-.412-.286-.665V61.368l.007-.136c.025-.22.111-.409.26-.567.176-.19.404-.285.683-.285h10.45zm-159.41 0l.429.004c3.543.066 6.314.958 8.311 2.675 2.077 1.786 3.167 4.351 3.268 7.695.025.735.038 1.71.038 2.926 0 1.216-.013 2.179-.038 2.888-.253 6.941-4.193 10.412-11.818 10.412h-10.184l-.124-.008c-.202-.026-.383-.119-.54-.277-.19-.19-.286-.412-.286-.665V61.368l.007-.136c.025-.22.111-.409.26-.567.176-.19.404-.285.683-.285h9.994zm35.264 0l.136.008c.22.026.409.119.567.277.19.19.285.424.285.703v3.762l-.008.135c-.026.218-.119.401-.277.549-.19.177-.424.266-.703.266h-12.008v4.826h11.172l.136.008c.22.026.409.119.567.277.19.19.285.424.285.703v3.458l-.008.136c-.026.22-.119.409-.277.567-.19.19-.424.285-.703.285h-11.172v4.94h12.312l.136.008c.22.026.409.119.567.277.19.19.285.424.285.703v3.762l-.008.135c-.026.218-.119.401-.277.549-.19.177-.424.266-.703.266h-18.24l-.124-.008c-.202-.026-.383-.119-.54-.277-.19-.19-.286-.412-.286-.665V61.368l.007-.136c.025-.22.111-.409.26-.567.176-.19.404-.285.683-.285h17.936zm44.156 15.504h-5.092v5.966h5.092c.988 0 1.754-.285 2.3-.855.544-.57.816-1.273.816-2.109 0-.861-.279-1.577-.836-2.147-.557-.57-1.317-.855-2.28-.855zM11.855 65.7c-1.343 0-2.407.399-3.192 1.197-.785.798-1.203 2.02-1.254 3.667-.025.71-.038 1.735-.038 3.078v.365c.003 1.192.015 2.121.038 2.789.05 1.647.469 2.869 1.254 3.667.785.798 1.85 1.197 3.192 1.197 1.317 0 2.369-.399 3.154-1.197.785-.798 1.203-2.02 1.254-3.667.047-1.356.072-2.356.076-3v-.154c0-.633-.025-1.66-.076-3.078-.05-1.647-.469-2.869-1.254-3.667-.785-.798-1.837-1.197-3.154-1.197zm78.318 0c-1.343 0-2.407.399-3.192 1.197-.785.798-1.203 2.02-1.254 3.667-.025.71-.038 1.735-.038 3.078v.365c.003 1.192.015 2.121.038 2.789.05 1.647.469 2.869 1.254 3.667.785.798 1.85 1.197 3.192 1.197 1.317 0 2.369-.399 3.154-1.197.785-.798 1.203-2.02 1.254-3.667.05-1.47.076-2.52.076-3.154 0-.633-.025-1.66-.076-3.078-.05-1.647-.469-2.869-1.254-3.667-.785-.798-1.837-1.197-3.154-1.197zm298.756 0c-1.343 0-2.407.399-3.192 1.197-.785.798-1.203 2.02-1.254 3.667-.023.645-.035 1.551-.038 2.72v.723c.003 1.192.015 2.121.038 2.789.05 1.647.469 2.869 1.254 3.667.785.798 1.85 1.197 3.192 1.197 1.317 0 2.369-.399 3.154-1.197.785-.798 1.203-2.02 1.254-3.667.05-1.47.076-2.52.076-3.154 0-.633-.025-1.66-.076-3.078-.05-1.647-.469-2.869-1.254-3.667-.785-.798-1.837-1.197-3.154-1.197zm-105.26.38h-3.61v15.2h3.8c1.596 0 2.774-.38 3.534-1.14.76-.76 1.165-1.976 1.216-3.648.05-.735.076-1.685.076-2.85s-.025-2.103-.076-2.812c-.05-1.621-.488-2.818-1.31-3.591-.824-.773-2.034-1.159-3.63-1.159zm185.364 0h-3.61v15.2h3.8c1.596 0 2.774-.38 3.534-1.14.76-.76 1.165-1.976 1.216-3.648.05-.735.076-1.685.076-2.85s-.025-2.103-.076-2.812c-.05-1.621-.488-2.818-1.31-3.591-.824-.773-2.034-1.159-3.63-1.159zm-212.382.988l-3.382 9.69h6.764l-3.382-9.69zm158.954 0l-3.382 9.69h6.764l-3.382-9.69zm-79.61-1.216h-4.218v6.27h4.218c1.09 0 1.92-.272 2.49-.817.57-.545.854-1.298.854-2.261 0-.963-.285-1.735-.855-2.318-.57-.583-1.4-.874-2.489-.874zm107.236 0h-4.218v6.27h4.218c1.09 0 1.92-.272 2.49-.817.57-.545.854-1.298.854-2.261 0-.963-.285-1.735-.855-2.318-.57-.583-1.4-.874-2.489-.874zm-80.294-.342h-4.75v5.396h4.75c.937 0 1.66-.253 2.166-.76.507-.507.76-1.165.76-1.976 0-.785-.247-1.425-.74-1.919-.495-.494-1.223-.741-2.186-.741z"/>
    </defs>
    <g fill="none" transform="translate(.866 .02)">
        <use fill="#000" filter="url(#3j0y7ogopa)" xlink:href="#7mtn6e4tlb"/>
        <use fill="url(#vb64lt29mc)" xlink:href="#7mtn6e4tlb"/>
        <g>
            <use fill="#000" filter="url(#axganej7hd)" xlink:href="#feoslpop6e"/>
            <use fill="url(#7ap2embm7f)" xlink:href="#feoslpop6e"/>
        </g>
    </g>
</svg>
