<svg xmlns="http://www.w3.org/2000/svg" width="50" height="50" viewBox="0 0 50 50">
    <g fill="none" fill-rule="evenodd">
        <g fill-rule="nonzero">
            <g>
                <g>
                    <g>
                        <g>
                            <path fill="#F69521" d="M33.1 48.606C20.325 53.167 5.72 46.184 1.263 32.79c-4.29-12.896 2.695-27 15.875-31.484 13.049-4.438 27.485 2.784 31.71 16.208 4.132 13.117-3.241 27.004-15.746 31.09z" transform="translate(-710 -422) translate(605 150) translate(0 60) translate(40 162) translate(65 50)"/>
                            <path fill="#FEFEFE" d="M15.523 13.696c.013-.514 0-.944 0-1.439l4.736.013c.014-.949.029-1.829.046-2.806h1.429c.012.925.025 1.802.037 2.804l4.024.03.046-2.786h1.418l.043 2.727c1.29.357 2.552.606 3.725 1.072 3.28 1.302 4.757 4.657 3.594 7.985-.614 1.761-1.912 2.872-3.762 3.627 1.74.568 3.24 1.263 4.173 2.741.917 1.424 1.184 3.17.734 4.802-.834 3.27-2.918 5.536-8.61 5.59-.015.324-.035 1.158-.061 2.5h-1.42l-.034-2.52-4.005-.015c-.025.893-.049 1.684-.075 2.568l-1.415.03-.044-2.596-4.745-.066.016-1.428h2.077c.648 0 .97-.233 1.02-.817.107-1.3.228-2.601.24-3.903.046-4.988.071-9.976.076-14.964-.018-.8-.082-1.598-.193-2.39-.06-.507-.345-.776-.907-.755-.69.046-1.395.009-2.163-.004zm6.429 11.886c-.015 3.48-.036 6.813-.02 10.125 0 .213.323.591.522.61 1.607.145 3.255.42 4.853.281 2.475-.216 4.256-1.934 4.686-4.12.457-2.32-.507-4.735-2.425-5.883-2.357-1.406-4.932-1.236-7.616-1.013zm.014-1.457c1.823-.023 3.545.09 5.23-.1 1.965-.216 3.508-1.191 4.052-3.24.554-2.094.214-4.019-1.387-5.589-1.602-1.57-5.495-2.248-7.488-1.337-.187.108-.314.296-.343.51-.034 3.147-.044 6.29-.064 9.756z" transform="translate(-710 -422) translate(605 150) translate(0 60) translate(40 162) translate(65 50)"/>
                        </g>
                    </g>
                </g>
            </g>
        </g>
    </g>
</svg>
