<svg xmlns="http://www.w3.org/2000/svg" width="17" height="20" viewBox="0 0 17 20">
    <g fill="none" fill-rule="evenodd">
        <g fill="#FFF" fill-rule="nonzero">
            <g>
                <g>
                    <g>
                        <g>
                            <g>
                                <path d="M3.193 3.548v8.644c0 1.663 1.354 3.016 3.016 3.016h6.565v1.242c0 1.077-.875 1.952-1.952 1.952h-8.87C.875 18.402 0 17.527 0 16.45V5.5c0-1.077.875-1.952 1.952-1.952h1.241zM13.661 0c1.078 0 1.951.874 1.951 1.952v10.24c0 1.078-.873 1.952-1.951 1.952H6.209c-1.078 0-1.951-.874-1.951-1.952V1.952C4.258.874 5.13 0 6.209 0z" transform="translate(-1137 -792) translate(728 230) translate(20 508) translate(0 37) translate(375 5) translate(14.694 12.857)"/>
                            </g>
                        </g>
                    </g>
                </g>
            </g>
        </g>
    </g>
</svg>
