<svg xmlns="http://www.w3.org/2000/svg" width="26" height="24" viewBox="0 0 26 24">
    <defs>
        <filter id="2ex0k9ryea">
            <feColorMatrix in="SourceGraphic" values="0 0 0 0 1.000000 0 0 0 0 1.000000 0 0 0 0 1.000000 0 0 0 1.000000 0"/>
        </filter>
    </defs>
    <g fill="none" fill-rule="evenodd">
        <g>
            <g>
                <g>
                    <g>
                        <g filter="url(#2ex0k9ryea)" transform="translate(-947 -413) translate(728 245) translate(0 60) translate(182 70) translate(35 35)">
                            <path fill="#200E32" fill-rule="nonzero" d="M15.438 0c1.212.012 2.2.637 2.774 1.76.159.317.384.789.616 1.279l.233.491.114.24.125.276c.05.087.137.15.25.15 3 0 5.45 2.447 5.45 5.443v7.417c0 2.997-2.45 5.444-5.45 5.444H5.45C2.437 22.5 0 20.053 0 17.056V9.639c0-2.996 2.438-5.444 5.45-5.444.1 0 .2-.05.237-.15l.075-.15c.35-.736.776-1.635 1.026-2.134C7.361.637 8.338.012 9.55 0zM12.5 8.004c-1.313 0-2.55.512-3.488 1.448-.925.936-1.437 2.16-1.425 3.459 0 1.31.513 2.534 1.438 3.47.938.925 2.162 1.437 3.475 1.437 1.35 0 2.575-.55 3.463-1.436.887-.887 1.437-2.11 1.45-3.471 0-1.299-.513-2.535-1.438-3.471-.925-.924-2.162-1.436-3.475-1.436zm0 1.873c.813 0 1.575.312 2.15.886.575.574.887 1.336.887 2.148-.012 1.673-1.362 3.034-3.037 3.034-.813 0-1.575-.312-2.15-.887-.575-.574-.887-1.336-.887-2.147v-.013c-.013-.786.3-1.548.875-2.122.587-.587 1.35-.9 2.162-.9zm7.012-2.173c-.625 0-1.125.512-1.125 1.136 0 .624.5 1.124 1.125 1.124s1.138-.5 1.138-1.124c0-.624-.512-1.136-1.137-1.136z" transform="translate(2.5 3.75)"/>
                        </g>
                    </g>
                </g>
            </g>
        </g>
    </g>
</svg>
