<svg xmlns="http://www.w3.org/2000/svg" width="50" height="50" viewBox="0 0 50 50">
    <g fill="none" fill-rule="evenodd">
        <g fill-rule="nonzero">
            <g>
                <g>
                    <g>
                        <g transform="translate(-930 -422) translate(605 150) translate(0 60) translate(260 162) translate(65 50)">
                            <circle cx="25" cy="25" r="25" fill="#FFF"/>
                            <path fill="#1E1F2D" d="M31.753 28.686l-6.2 9.42c-.114.17-.364.176-.484.009l-6.71-9.363c-.186-.26.12-.588.392-.42l6.14 3.773c.095.058.214.058.308-.001l6.155-3.828c.266-.166.572.148.399.41zm-7.046-16.748c.114-.184.382-.185.497-.002l7.11 11.327c.085.136.045.315-.089.402l-6.968 4.52c-.096.062-.22.063-.316.002l-7.162-4.524c-.137-.086-.178-.266-.093-.402z"/>
                        </g>
                    </g>
                </g>
            </g>
        </g>
    </g>
</svg>
