<svg xmlns="http://www.w3.org/2000/svg" width="17" height="16" viewBox="0 0 17 16">
    <g fill="none" fill-rule="evenodd">
        <g fill="#FFF" fill-rule="nonzero">
            <g>
                <g>
                    <g>
                        <g>
                            <path d="M7.438 8.48v7.437H2.125c-.546 0-.998-.415-1.056-.947l-.006-.115V8.48h6.375zm8.5 0v6.375c0 .547-.415.998-.947 1.056l-.116.006H9.562V8.48h6.376zM10.052.629c.832-.838 2.284-.84 3.117 0 .857.861.857 2.264 0 3.126-.145.146-.352.31-.593.475h3.361c.587 0 1.063.477 1.063 1.062v1.594c0 .293-.238.531-.531.531H9.562V5.292H7.438v2.125H.53C.238 7.417 0 7.179 0 6.886V5.292C0 4.707.477 4.23 1.063 4.23h3.361c-.24-.165-.448-.329-.594-.475-.855-.862-.855-2.265.001-3.126.832-.838 2.284-.838 3.117 0 .46.462 1.682 2.344 1.514 3.6h.076C8.37 2.974 9.591 1.092 10.052.63zm-4.662.413c-.304 0-.59.119-.805.336-.446.448-.446 1.18 0 1.628.458.46 1.86 1.224 2.593 1.224.152 0 .197-.036.197-.036.247-.256-.465-2.096-1.18-2.816-.216-.217-.502-.336-.805-.336zm7.025.336c-.432-.435-1.181-.433-1.61 0-.716.72-1.427 2.56-1.18 2.816 0 .002.045.036.196.036.735 0 2.136-.763 2.594-1.224.447-.449.447-1.18 0-1.628z" transform="translate(-1112 -142) translate(40 100) translate(730 20) translate(330 10) translate(12 12)"/>
                        </g>
                    </g>
                </g>
            </g>
        </g>
    </g>
</svg>
