<svg xmlns="http://www.w3.org/2000/svg" width="149" height="148" viewBox="0 0 149 148">
    <g fill="none" fill-rule="evenodd">
        <g>
            <g>
                <g>
                    <g transform="translate(-886 -326) translate(728 230) translate(140 81) translate(3 5)">
                        <path fill="#CF7523" stroke="#2A2A41" stroke-opacity=".051" stroke-width="5" d="M108.44 18.16c6.821-.12 9.262.271 11.92 1.083 2.828.864 5.289 2.23 7.518 4.175 2.094 1.826 3.716 3.691 7.222 9.545h0l20.746 34.639c3.5 5.844 4.378 8.15 5 10.853.663 2.878.71 5.687.14 8.584-.622 2.97-1.498 5.348-4.643 11.011h0l-19.483 35.084c-3.16 5.69-4.722 7.69-6.624 9.508l-.268.252c-2.159 2.014-4.567 3.46-7.36 4.419-2.567.88-4.941 1.354-11.417 1.484h0l-41.112.718c-6.471.094-8.858-.295-11.452-1.086-2.824-.86-5.281-2.221-7.51-4.158-2.092-1.82-3.714-3.679-7.227-9.515h0l-20.696-34.382c-3.514-5.837-4.397-8.14-5.025-10.842-.67-2.876-.722-5.685-.16-8.584.528-2.723 1.325-5.058 4.62-11.02h0l19.524-35.343c3.3-5.972 4.855-7.893 6.884-9.791 2.16-2.02 4.572-3.472 7.368-4.434 2.628-.905 5.053-1.38 11.875-1.5h0z"/>
                        <path fill="#FFA12C" stroke="#2A2A41" stroke-opacity=".051" stroke-width="5" d="M129.759 28.598c6.451 2.221 8.61 3.423 10.83 5.095 2.363 1.78 4.208 3.905 5.637 6.494 1.344 2.433 2.23 4.74 3.523 11.44h0l7.647 39.645c1.29 6.69 1.327 9.156.987 11.91-.361 2.93-1.279 5.585-2.804 8.114-1.6 2.578-3.237 4.513-8.13 8.758h0l-30.307 26.304c-4.916 4.267-7.067 5.612-9.476 6.67l-.339.145c-2.717 1.154-5.475 1.69-8.426 1.635-2.715-.05-5.107-.418-11.237-2.51h0l-38.878-13.386c-6.113-2.125-8.223-3.307-10.39-4.937-2.36-1.775-4.203-3.894-5.634-6.477-1.345-2.426-2.233-4.727-3.538-11.412h0l-7.689-39.388c-1.305-6.686-1.347-9.153-1.014-11.906.355-2.932 1.267-5.59 2.786-8.12 1.428-2.38 2.975-4.3 8.11-8.778h0l30.435-26.533c5.143-4.483 7.262-5.756 9.818-6.846 2.72-1.16 5.483-1.699 8.44-1.647 2.779.05 5.22.432 11.672 2.653h0z"/>
                        <circle cx="90.5" cy="84.5" r="35.5" fill="#2A2A41" fill-opacity=".111"/>
                        <path fill="#FFF" fill-rule="nonzero" d="M88.313 85.458v15.312H77.374c-1.153 0-2.102-.896-2.182-2.031l-.005-.156V85.458h13.124zm17.5 0v13.125c0 1.155-.897 2.102-2.032 2.182l-.156.005H92.687V85.458h13.126zM93.695 69.294c1.713-1.723 4.7-1.728 6.416 0 1.765 1.775 1.765 4.662 0 6.436-.298.302-.724.639-1.22.978h6.92c1.208 0 2.188.982 2.188 2.187v3.282c0 .603-.49 1.093-1.094 1.093H92.687v-4.375h-4.374v4.375h-14.22c-.603 0-1.093-.49-1.093-1.093v-3.282c0-1.205.982-2.187 2.188-2.187h6.92c-.496-.34-.922-.676-1.222-.978-1.761-1.774-1.761-4.661.002-6.436 1.713-1.723 4.701-1.723 6.416 0 .947.952 3.463 4.826 3.117 7.414h.158c-.348-2.588 2.168-6.462 3.117-7.414zm-9.599.851c-.625 0-1.214.245-1.658.692-.916.923-.916 2.428 0 3.35.943.95 3.828 2.52 5.34 2.52.313 0 .404-.071.404-.071.51-.527-.956-4.316-2.43-5.8-.444-.446-1.032-.69-1.656-.69zm14.464.692c-.89-.895-2.433-.89-3.314 0-1.475 1.483-2.94 5.272-2.43 5.799 0 .002.091.072.402.072 1.514 0 4.4-1.57 5.342-2.52.919-.923.919-2.428 0-3.351z"/>
                    </g>
                </g>
            </g>
        </g>
    </g>
</svg>
