<svg xmlns="http://www.w3.org/2000/svg" xmlns:xlink="http://www.w3.org/1999/xlink" width="25" height="27" viewBox="0 0 25 27">
    <defs>
        <path id="kx9tl7ydja" d="M10.23 2h4.54c3.535 0 4.834.371 6.137 1.069 1.304.697 2.327 1.72 3.024 3.024C24.63 7.396 25 8.695 25 12.23v4.54c0 3.535-.371 4.834-1.069 6.137-.697 1.304-1.72 2.327-3.024 3.024C19.604 26.63 18.305 27 14.77 27h-4.54c-3.535 0-4.834-.371-6.137-1.069-1.304-.697-2.327-1.72-3.024-3.024C.37 21.604 0 20.305 0 16.77v-4.54c0-3.535.371-4.834 1.069-6.137.697-1.304 1.72-2.327 3.024-3.024C5.396 2.37 6.695 2 10.23 2z"/>
    </defs>
    <g fill="none" fill-rule="evenodd">
        <g>
            <g>
                <g>
                    <g transform="translate(-1511 -38) translate(1511 21) translate(0 17)">
                        <use fill="#0FA67A" xlink:href="#kx9tl7ydja"/>
                        <use fill="#000" fill-opacity=".3" xlink:href="#kx9tl7ydja"/>
                    </g>
                    <path fill="#0FA67A" d="M10.23 0h4.54c3.535 0 4.834.371 6.137 1.069 1.304.697 2.327 1.72 3.024 3.024C24.63 5.396 25 6.695 25 10.23v4.54c0 3.535-.371 4.834-1.069 6.137-.697 1.304-1.72 2.327-3.024 3.024C19.604 24.63 18.305 25 14.77 25h-4.54c-3.535 0-4.834-.371-6.137-1.069-1.304-.697-2.327-1.72-3.024-3.024C.37 19.604 0 18.305 0 14.77v-4.54c0-3.535.371-4.834 1.069-6.137.697-1.304 1.72-2.327 3.024-3.024C5.396.37 6.695 0 10.23 0z" transform="translate(-1511 -38) translate(1511 21) translate(0 17)"/>
                    <g fill="#FFF" fill-rule="nonzero">
                        <path d="M7.8 0L5.2 0 5.2 5.2 0 5.2 0 7.8 5.2 7.8 5.2 13 7.8 13 7.8 7.8 13 7.8 13 5.2 7.8 5.2z" transform="translate(-1511 -38) translate(1511 21) translate(0 17) translate(6 6)"/>
                    </g>
                </g>
            </g>
        </g>
    </g>
</svg>
