<svg xmlns="http://www.w3.org/2000/svg" width="49" height="45" viewBox="0 0 49 45">
    <g fill="none" fill-rule="evenodd">
        <g fill="#1A5C52" stroke="#0E926C" stroke-width="3">
            <g>
                <path d="M19.717 1.5h9.566c2.82 0 3.823.187 4.914.541 1.194.388 2.227.985 3.159 1.827.851.769 1.514 1.546 2.92 3.99h0l4.805 8.35c1.404 2.44 1.742 3.4 1.98 4.52.26 1.226.258 2.418-.004 3.643-.24 1.12-.58 2.08-1.99 4.517h0l-4.787 8.277c-1.41 2.436-2.072 3.21-2.923 3.977-.93.838-1.963 1.433-3.155 1.82-1.09.352-2.091.538-4.905.538h0-9.594c-2.814 0-3.816-.186-4.905-.539-1.192-.386-2.224-.981-3.155-1.82-.851-.766-1.513-1.54-2.923-3.976h0l-4.787-8.277c-1.41-2.436-1.75-3.396-1.99-4.517-.262-1.225-.264-2.417-.004-3.642.238-1.12.576-2.082 1.98-4.521h0l4.805-8.35c1.406-2.444 2.069-3.221 2.92-3.99.932-.842 1.965-1.44 3.159-1.827 1.091-.354 2.095-.541 4.914-.541h0z" transform="translate(-78) translate(78)"/>
            </g>
        </g>
    </g>
</svg>
