<svg xmlns="http://www.w3.org/2000/svg" width="14" height="13" viewBox="0 0 14 13">
    <g fill="none" fill-rule="evenodd" opacity=".497">
        <g fill="#2A2A41" fill-rule="nonzero">
            <g>
                <g>
                    <g>
                        <g>
                            <g>
                                <path d="M13.837 5.428L8.78.178c-.165-.17-.418-.224-.638-.136-.22.09-.365.303-.365.541v2.528h-.195C3.402 3.111 0 6.513 0 10.695v1.166c0 .271.19.497.454.558.043.01.086.016.128.016.22 0 .431-.13.533-.333C2.21 9.915 4.408 8.556 6.854 8.556h.924v2.527c0 .239.144.453.365.541.219.09.473.035.638-.136l5.056-5.25c.217-.226.217-.583 0-.81z" transform="translate(-824 -239) translate(40 100) translate(740 80) translate(0 45) translate(31) translate(13 14)"/>
                            </g>
                        </g>
                    </g>
                </g>
            </g>
        </g>
    </g>
</svg>
