<svg xmlns="http://www.w3.org/2000/svg" width="16" height="18" viewBox="0 0 16 18">
    <g fill="none" fill-rule="evenodd">
        <g fill="#FFF" fill-rule="nonzero">
            <g>
                <g>
                    <g>
                        <path d="M13.09 0C14.696 0 16 1.305 16 2.91c0 1.603-1.305 2.908-2.91 2.908-.844 0-1.605-.361-2.137-.938l-5.26 2.999c.081.268.125.553.125.848 0 .295-.044.579-.125.847l5.26 3c.533-.576 1.294-.938 2.138-.938 1.604 0 2.909 1.305 2.909 2.91 0 1.604-1.305 2.909-2.91 2.909-1.603 0-2.908-1.305-2.908-2.91 0-.237.029-.469.083-.69l-5.332-3.04c-.524.508-1.238.821-2.024.821C1.305 11.636 0 10.332 0 8.727c0-1.604 1.305-2.909 2.91-2.909.784 0 1.498.313 2.022.82l5.332-3.04c-.054-.22-.082-.451-.082-.689C10.182 1.305 11.487 0 13.09 0z" transform="translate(-37 -150) translate(15 128) translate(10 10) translate(12 12)"/>
                    </g>
                </g>
            </g>
        </g>
    </g>
</svg>
