<svg xmlns="http://www.w3.org/2000/svg" width="5" height="17" viewBox="0 0 5 17">
    <g fill="none" fill-rule="evenodd">
        <g fill="#FFF" fill-rule="nonzero">
            <g>
                <g>
                    <g>
                        <path d="M9.628 13.372c.83.83.83 2.176 0 3.006-.83.83-2.176.83-3.006 0-.83-.83-.83-2.176 0-3.006.83-.83 2.176-.83 3.006 0zm0-6.375c.83.83.83 2.176 0 3.006-.83.83-2.176.83-3.006 0-.83-.83-.83-2.176 0-3.006.83-.83 2.176-.83 3.006 0zm0-6.375c.83.83.83 2.176 0 3.006-.83.83-2.176.83-3.006 0-.83-.83-.83-2.176 0-3.006.83-.83 2.176-.83 3.006 0z" transform="translate(-798 -142) translate(40 100) translate(740 30) translate(12 12)"/>
                    </g>
                </g>
            </g>
        </g>
    </g>
</svg>
