<svg xmlns="http://www.w3.org/2000/svg" width="99" height="30" viewBox="0 0 99 30">
    <g fill="none" fill-rule="evenodd">
        <g fill-rule="nonzero">
            <g>
                <g>
                    <g>
                        <g>
                            <path fill="#3C58BF" d="M64.987.117c3.117 0 5.61.623 7.169 1.247l-1.247 6.078-.78-.312c-1.402-.624-3.272-1.091-5.921-1.091-3.117 0-4.52 1.247-4.52 2.493 0 1.403 1.715 2.182 4.52 3.585 4.675 2.026 6.701 4.52 6.701 7.792 0 5.922-5.454 9.818-13.714 9.818-3.585 0-7.013-.779-8.883-1.558l1.09-6.39 1.092.468c2.649 1.09 4.363 1.558 7.48 1.558 2.182 0 4.675-.935 4.675-2.805 0-1.247-.935-2.182-4.052-3.584-3.116-1.403-7.013-3.585-7.013-7.793 0-5.61 5.61-9.506 13.403-9.506zm-26.961 1.09L25.403 29.26h-8.416L9.974 4.325c4.987 2.493 9.507 7.636 10.91 12.311l.778 4.052 7.948-19.48h8.416zm10.753-.155l-4.83 28.052H36l4.987-28.052h7.792zm42.857 0l6.546 28.052h-7.48l-.936-4.675h-9.974l-1.558 4.675h-8.416L81.506 3.078c.78-1.87 2.182-2.026 4.052-2.026h6.078zm-5.454 7.636c-.468 1.091-1.091 2.806-1.091 2.806s-2.65 6.857-3.117 8.26v.155h6.545c-.311-1.558-1.87-8.571-1.87-8.571z" transform="translate(-906 -673) translate(605 150) translate(0 60) translate(260 403) translate(41 60)"/>
                            <path fill="#FFBC00" d="M0 1.052l1.403.312c9.974 2.337 16.83 8.26 19.48 15.272L18.078 3.39c-.468-1.87-1.87-2.338-3.584-2.338H0z" transform="translate(-906 -673) translate(605 150) translate(0 60) translate(260 403) translate(41 60)"/>
                            <path fill="#F7981D" d="M0 1.052C9.974 3.39 18.234 9.468 20.883 16.48l-2.65-11.065c-.467-1.87-2.025-2.961-3.74-2.961L0 1.052z" transform="translate(-906 -673) translate(605 150) translate(0 60) translate(260 403) translate(41 60)"/>
                            <path fill="#ED7C00" d="M0 1.052C9.974 3.39 18.234 9.468 20.883 16.48l-1.87-6.078c-.468-1.87-1.09-3.74-3.273-4.52L0 1.052z" transform="translate(-906 -673) translate(605 150) translate(0 60) translate(260 403) translate(41 60)"/>
                            <path fill="#547CFF" d="M64.987.117c3.117 0 5.61.623 7.169 1.247l-1.247 6.078-.78-.312c-1.402-.624-3.272-1.091-5.921-1.091-3.117 0-4.52 1.247-4.52 2.493 0 1.403 1.715 2.182 4.52 3.585 4.675 2.026 6.701 4.52 6.701 7.792 0 5.922-5.454 9.818-13.714 9.818-3.585 0-7.013-.779-8.883-1.558l1.09-6.39 1.092.468c2.649 1.09 4.363 1.558 7.48 1.558 2.182 0 4.675-.935 4.675-2.805 0-1.247-.935-2.182-4.052-3.584-3.116-1.403-5.61-3.585-5.61-7.793 0-5.61 4.208-9.506 12-9.506zm-26.961 1.09L25.403 29.26h-8.416L9.974 4.325c4.987 2.493 9.507 7.636 10.91 12.311l.778 4.052 9.507-19.48h6.857zm10.753-.155l-4.83 28.052H36l6.39-28.052h6.39zm42.857 0l6.546 28.052h-7.48l-.936-4.675h-9.974l-1.558 4.675h-8.416L83.377 3.078c.779-1.87 2.181-2.026 4.052-2.026h4.207zm-5.454 7.636c-.468 1.091-1.091 2.806-1.091 2.806s-2.494 6.7-3.117 8.26v.155h6.545c-.311-1.558-1.87-8.571-1.87-8.571z" transform="translate(-906 -673) translate(605 150) translate(0 60) translate(260 403) translate(41 60)"/>
                        </g>
                    </g>
                </g>
            </g>
        </g>
    </g>
</svg>
